<?xml version="1.0" encoding="UTF-8"?>
<svg version="1.1" viewBox="0 0 2048 628" width="1280" height="1280" xmlns="http://www.w3.org/2000/svg">
<path transform="translate(419,135)" d="m0 0h30l24 5 30 10 15 8 22 13 14 11 7 7 11 14 8 13 12 23 5 11 5 18 3 17 1 11v25l-2 18-5 23-6 16-8 16-10 16-11 13-7 8-9 9-17 13-20 12-10 5-23 7-20 4-19 2h-16l-22-3-24-6-21-8-17-11-13-10-32-32-10-14-8-12-6-16-9-36-2-12v-29l4-22 5-20 6-15 7-13 11-17 6-8 5-6 8-7 9-9 13-10 15-9 12-7 24-8 23-6z" fill="#2281AD"/>
<path transform="translate(475,47)" d="m0 0h12l23 7 40 16 25 15 21 14 13 10 12 11 12 12 11 15 16 24 14 25 8 20 13 41 4 22 1 10v43l-5 30-7 24-8 23-10 21-13 23-6 10-13 18-20 20-11 9-18 14-11 8-20 13-14 7-38 13-20 5-25 3-22 1h-17l-29-2-19-3-24-7-27-10-19-10-21-13-14-11-15-13-22-22-9-11-7-8-11-18-12-21-11-27-8-25-4-22-2-26v-32l2-25 3-17 6-20 11-32 9-17 12-19 10-13 10-12 8-10 11-11 7-8 17-13 15-10 21-11 17-9 30-12 17-5 5-1h11l10 5 9 10 4 7 2 9-1 11-5 10-8 7-18 6-13 4-28 11-11 7-17 13-12 9-14 12-5 5h-2v2l-5 5-10 14-8 13-7 15-12 31-4 18-2 19v41l3 20 5 18 7 19 7 16 10 16 10 14 11 13 14 14 13 10 20 13 14 7 24 9 18 5 18 3 12 1h31l20-2 20-5 33-13 16-8 15-9 13-11 7-7 7-8 14-17 15-22 8-14 14-42 3-16 2-18v-19l-2-17-4-18-10-29-8-19-11-18-10-14-14-15-12-12-11-9-14-10-15-9-40-16-20-6-9-6-6-8-3-10 2-11 5-10 6-7 11-7z" fill="#0C3163"/>
<path transform="translate(418,207)" d="m0 0h12l28 4 12 4 16 9 12 12 8 9 10 15 7 12 5 19 1 6v18l-2 13-5 15-8 16-11 14-3 4h-2l-2 4-12 9-20 8-8 2-23 2h-11l-21-3-11-3-11-6-12-9-5-4-12-16-5-7-9-26-1-6v-20l3-22 6-15 9-15 9-12 13-12 17-11 8-4z" fill="#31A8CC"/>
<path transform="translate(419,135)" d="m0 0h30l24 5 30 10 15 8 22 13 14 11 7 7 11 14 8 13 12 23 5 11 5 18 3 17 1 11v25l-2 18-5 23-6 16-8 16-10 16-11 13-7 8-9 9-17 13-20 12-10 5-23 7-20 4-19 2h-16l-22-3-24-6-21-8-17-11-13-10-32-32-10-14-8-12-6-16-9-36-2-12v-29l4-22 5-20 6-15 7-13 11-17 6-8 5-6 8-7 9-9 13-10 15-9 12-7 24-8 23-6zm13 20-31 3-14 4-18 7-16 7-11 6-6 4-10 8-5 5v2l-4 2-11 14-10 16-5 10-6 16-6 29v33l4 27 3 12 2 7 4 8 4 10 9 13 11 12 1 2h2l1 3h2l1 3 5 5 3 1v2l20 14 9 5 19 10 15 5 18 3 19 1 17-1 19-4 23-8 18-10 14-9 14-11 7-7 2-1v-2l4-2 8-11 7-10 7-12 8-19 6-26v-37l-2-19-5-21-6-13-6-12-6-10-8-11-7-8-9-8-5-2v-2l-14-9-17-9-15-6-14-4-16-3z" fill="#0E4978"/>
<path transform="translate(422,147)" d="m0 0h20l31 5 16 5 19 8v2l4 1 21 12 7 5v2l4 2 4 5 3 2v2l3 1 13 17 6 11 4 7 8 17 4 13 2 7 3 35v22l-2 15-6 18-7 17-7 14-10 14-3 4h-2l-2 4h-2l-2 5-5 5h-2v2l-14 11-18 11-10 6-22 10-19 6-26 2-21-1-25-5-20-7-14-7-11-6-14-9-7-5-7-8-11-12-10-9-8-13-8-20-4-16-4-24-2-22 1-17 3-24 3-12 3-10 4-7 6-11 8-11 6-8h2l2-4h2l2-5 11-11 7-6h2v-2l16-9 10-5 19-9 14-5 20-4zm10 8-31 3-14 4-18 7-16 7-11 6-6 4-10 8-5 5v2l-4 2-11 14-10 16-5 10-6 16-6 29v33l4 27 3 12 2 7 4 8 4 10 9 13 11 12 1 2h2l1 3h2l1 3 5 5 3 1v2l20 14 9 5 19 10 15 5 18 3 19 1 17-1 19-4 23-8 18-10 14-9 14-11 7-7 2-1v-2l4-2 8-11 7-10 7-12 8-19 6-26v-37l-2-19-5-21-6-13-6-12-6-10-8-11-7-8-9-8-5-2v-2l-14-9-17-9-15-6-14-4-16-3z" fill="#145A8C"/>
<path transform="translate(1526,85)" d="m0 0h144l1 2v6l-1 2-84 1h-45v39l-1 14h122l1 1v11l-1 1-16 1h-106l1 59 136 1v12h-151l-1-1v-148z" fill="#0C3365"/>
<path transform="translate(852,80)" d="m0 0h19l19 3 18 6 11 6 11 9 9 10 7 12 4 13 1 6v25l-3 14-4 10-9 13-12 12-10 7-12 6-13 4-11 2-12 1h-12l-17-2-15-4-13-7-13-11-10-14-8-16-3-9-1-6v-22l3-14 6-14 7-11 10-10 10-7 12-6 14-4zm4 11-17 2-11 4-13 7-11 10-8 13-5 12-2 8v25l2 9 7 14 11 12 8 7 12 7 17 5 8 1h12l16-2 13-5 15-9 10-9 7-10 5-12 2-10v-24l-3-13-8-15-11-11-13-8-18-6-16-2z" fill="#0C3466"/>
<path transform="translate(809,260)" d="m0 0h31l25 1 16 3 12 5 9 7 9 9 9 14 5 12 2 8 1 11v11l-2 17-4 12-8 14-8 9-12 9-10 5-12 3-9 1h-91v-149l1-1zm-21 12-1 7v121h68l14-2 12-4 10-6 6-5 7-11 4-12 2-13v-19l-2-14-5-13-8-11-10-9-14-7-12-2z" fill="#0C3466"/>
<path transform="translate(1432,260)" d="m0 0h79l16 1v10l-1 1h-128v55h120l1 1v9l-1 1-43 1h-77v61h136v11l-6 1h-77l-68-1-1-1-1-83 1-66z" fill="#0D3667"/>
<path transform="translate(1007,260)" d="m0 0 94 1v10l-1 1h-130v55h113l8 1 1 1v8l-2 1-46 1h-75v61h138l1 1v10l-50 1h-41l-61-1-1-5v-129l1-16z" fill="#0D3567"/>
<path transform="translate(1417,80)" d="m0 0h17l17 3 15 5 11 6 14 11 7 8 2 4-1 5-5 5-5-1-19-19-14-8-11-4-10-2h-21l-16 4-12 6-10 8-7 7-6 10-5 16-1 5v24l4 13 7 12 10 10 14 9 11 5 13 3h19l14-3 17-9 10-8 5-5 6-7 5-5h8l3 3-1 7-6 10-12 12-14 9-12 5-11 3-7 1h-32l-16-3-12-5-11-8-9-9-9-14-7-15-4-15v-21l4-16 8-16 8-11 10-9 13-8 15-5z" fill="#0C3466"/>
<path transform="translate(1624,260)" d="m0 0h11l5 5 10 19 13 27 10 22 10 19 23 47 4 8v4l-2 1-11-1-6-7-10-23-4-7h-96l-10 19-8 15-3 3h-13l1-5 10-19 14-29 10-19 14-29 12-28 8-15 4-5zm2 17-15 31-11 23-11 22-2 3v3l14 1h69l-1-5-9-20-20-39-9-15-3-4z" fill="#0C3466"/>
<path transform="translate(1724,261)" d="m0 0h12l2 1 1 102 3 13 6 10 7 6 14 6 19 3h24l17-3 9-4 10-6 6-8 4-9 2-10 1-13 1-88 14 1v76l-1 27-2 12-4 10-8 10-10 8-12 5-13 3-24 2-25-1-19-4-14-7-8-7-6-9-4-11-2-17-1-97z" fill="#0D3566"/>
<path transform="translate(1138,85)" d="m0 0h139v10l-53 1h-71v53h93l20 1v13l-26 1h-82l-5-1v71l-1 1h-13l-1-1-1-42z" fill="#0D3567"/>
<path transform="translate(978,85)" d="m0 0h139v7l-1 3-125 1v54l113-1 1 1v13l-39 1h-59l-15-1v72h-14l-1-1v-148z" fill="#0C3365"/>
<path transform="translate(1201,261)" d="m0 0 15 1v107l-1 31h106l6 1 1 2v7l-1 1h-125l-1-1-1-26v-37z" fill="#0C3466"/>
<path transform="translate(772,459)" d="m0 0h68l10 3 6 5 4 6 2 6v10l-5 9-8 6-8 4 8 11 14 15 5 7v3h-8l-8-4-8-8-9-11-7-9-1-2-43-1v34l-5 1-7-1zm13 10-1 1v27l1 2h49l10-3 4-5v-13l-3-6-4-2-38-1z" fill="#0D3667"/>
<path transform="translate(1260,457)" d="m0 0h21l15 4 10 6 6 5 7 11 4 11v13l-3 12-7 11-8 7-14 7-13 2h-14l-15-3-11-6-9-8-6-10-3-9v-16l4-12 7-9 8-7 11-6zm1 11-10 3-9 6-6 7-3 6-1 5v16l5 10 7 7 10 5 8 2h20l10-3 9-7 7-8 3-8v-17l-4-8-7-8-8-5-10-3z" fill="#0D3668"/>
<path transform="translate(1087,457)" d="m0 0 5 1 8 7 23 23 7 8 18 18 10 13 1-69h13l1 1v82l-1 3h-8l-6-3-16-16-7-8-11-12-12-13-17-17h-1v24l-1 44-3 1-7-2v-65l1-19z" fill="#0D386A"/>
<path transform="translate(881,458)" d="m0 0 77 1v11h-56l-11-1v24l65 1 1 2v6l-1 1h-66v30l70-1 1 4v7l-3 1h-76l-1-3z" fill="#0D396A"/>
<path transform="translate(1340,458)" d="m0 0h9l7 6 7 8 7 7 8 7 41 41v-69h7l3 1v85l-5 1-10-6-21-21-7-8-28-28-6-7-1 69h-8l-3-2z" fill="#0D3768"/>
<path transform="translate(1298,85)" d="m0 0h11l6 1-1 149h-10l-6-1z" fill="#0C3163"/>
<path transform="translate(975,458)" d="m0 0h10l1 1 1 57 3 10 7 5 6 2 7 1h19l9-2 8-7 2-5 1-10v-51l1-1h11v57l-4 13-6 8-9 6-9 3h-29l-9-2-10-6-6-7-4-11-1-10v-23z" fill="#0D3668"/>
<path transform="translate(1194,458)" d="m0 0h10v85l-1 1h-8l-1-1z" fill="#0C3263"/>
<path transform="translate(1340,252)" d="m0 0 16 1 2 2-4 56-2 5-5-1-3-7-4-39-1-16z" fill="#0D3567"/>
<path transform="translate(1159,458)" d="m0 0h13l1 1v26l-3 1v18l-1 14-3 11-5 4-3-5z" fill="#145A8C"/>
<path transform="translate(1092,478)" d="m0 0h1v65l-3 1-6-1v-62h1l1 10h2l2-5 1-7z" fill="#0C3163"/>
<path transform="translate(775,468)" d="m0 0 2 4 2 5 2 2v38l-1 16-2 3h-2l-2-7-1-24h-1v-24l2-3z" fill="#0D4776"/>
<path transform="translate(1315,485)" d="m0 0 7 5 1 4v13l-1 5-4 4-6 8h-2v2l-4 1-1-5 4-10 1-3 1-11h1l1-11z" fill="#0F4A79"/>
<path transform="translate(1054,464)" d="m0 0h3l1 4v41l-2 6-3 1-1-2v-46z" fill="#0E4877"/>
<path transform="translate(460,477)" d="m0 0 3 2-5 2-19 2h-16l-16-2-2-2 3-1z" fill="#0E3B6C"/>
<path transform="translate(930,435)" d="m0 0 3 1-1 5-7 9-3 3-6 1v-7l4-8 6-3z" fill="#145C8D"/>
<path transform="translate(1170,486)" d="m0 0h1v42l-2 10h-5l-3-5 4-4 3-11z" fill="#0E4877"/>
<path transform="translate(1159,458)" d="m0 0h6v2h-3l-1 63-2-1z" fill="#145988"/>
<path transform="translate(979,462)" d="m0 0 4 1v16l-2 10-2-1-2-12 1-13z" fill="#0E4877"/>
<path transform="translate(1087,470)" d="m0 0 4 2 1 1-1 13-2 6-3-1-1-2v-16z" fill="#0E4877"/>
<path transform="translate(518,457)" d="m0 0 4 1-9 6-12 6-6 2h-5l3-3 9-4 8-4z" fill="#0E3A6B"/>
<path transform="translate(955,532)" d="m0 0 2 1-1 5-1 1h-14l-4-2 6-4z" fill="#0E4877"/>
<path transform="translate(1169,459)" d="m0 0h4v26l-3 1z" fill="#145A88"/>
<path transform="translate(923,439)" d="m0 0 4 2-5 9-3 4-3-1h2l1-9z" fill="#2281AD"/>
<path transform="translate(939,459)" d="m0 0h12l5 1v2h-19z" fill="#0F4D7C"/>
<path transform="translate(379,48)" d="m0 0h11v1l-14 2-1 1-10 2-2 1h-6l3-2z" fill="#207BA8"/>
<path transform="translate(930,435)" d="m0 0 3 1-1 5-4 6h-2l2-5 1-4-1-2z" fill="#104D7C"/>
<path transform="translate(354,55)" d="m0 0 3 1-5 3-8 3h-5l3-2z" fill="#196A98"/>
<path transform="translate(920,440)" d="m0 0 2 1-3 7-1 5h-2v-6l3-6z" fill="#135889"/>
</svg>
